<svg width="522" height="48" viewBox="0 0 522 48" fill="none" xmlns="http://www.w3.org/2000/svg">
<rect width="522" height="48" rx="24" fill="#81EBAB"/>
<path d="M26.496 30.32C23.168 30.32 20.736 27.824 20.736 24.4C20.736 20.976 23.168 18.48 26.496 18.48C29.392 18.48 31.648 20.352 31.84 22.912L29.792 23.088C29.6 21.488 28.208 20.32 26.496 20.32C24.384 20.32 22.848 22.048 22.848 24.4C22.848 26.736 24.384 28.464 26.496 28.464C28.224 28.464 29.632 27.232 29.824 25.552L31.872 25.712C31.664 28.368 29.392 30.32 26.496 30.32ZM35.2516 26.608C35.2516 27.856 35.8276 28.592 36.8196 28.592C37.8276 28.592 38.4356 27.888 38.5476 26.656V21.952H40.5316V27.168V30H38.5476L38.5796 28.768C38.1316 29.664 37.2836 30.192 36.1316 30.192C34.4196 30.192 33.2676 28.928 33.2676 27.008V21.952H35.2516V26.608ZM42.1598 30V21.952H44.1438L44.0958 24.16C44.4478 22.288 45.7758 21.664 47.1358 21.936V23.904C45.5838 23.68 44.1438 24.384 44.1438 26.576V30H42.1598ZM48.2691 30V21.952H50.2531L50.2051 24.16C50.5571 22.288 51.8851 21.664 53.2451 21.936V23.904C51.6931 23.68 50.2531 24.384 50.2531 26.576V30H48.2691ZM58.0474 30.288C55.6314 30.288 53.9034 28.48 53.9034 25.968C53.9034 23.472 55.6314 21.664 58.0154 21.664C60.7994 21.664 62.2874 24.064 61.9354 26.576H55.9034C55.9674 27.824 56.8474 28.736 58.0634 28.736C59.0234 28.736 59.8234 28.192 60.0954 27.376L61.7914 27.632C61.4714 29.12 59.9994 30.288 58.0474 30.288ZM55.9194 25.088H60.0154C60.0154 24.016 59.1994 23.152 58.0154 23.152C56.9114 23.152 56.0634 23.936 55.9194 25.088ZM63.3629 30V21.952H65.3469L65.2989 23.664C65.6509 22.48 66.5469 21.76 67.8429 21.76C69.5869 21.76 70.7549 23.056 70.7549 25.04V30H68.7709V25.344C68.7709 24.096 68.1789 23.36 67.1229 23.36C65.9869 23.36 65.3469 24.208 65.3469 25.696V30H63.3629ZM76.2516 30.24C73.8196 30.24 72.0596 28.448 72.0596 25.968C72.0596 23.52 73.8356 21.712 76.2516 21.712C78.3956 21.712 80.0916 23.056 80.2036 25.024L78.2516 25.184C78.1396 24.176 77.3076 23.456 76.2516 23.456C74.9556 23.456 74.0436 24.512 74.0436 25.968C74.0436 27.552 75.0676 28.48 76.2516 28.48C77.2596 28.48 78.1396 27.776 78.2516 26.656L80.2196 26.8C80.1236 28.848 78.4276 30.24 76.2516 30.24ZM81.1129 31.488C82.0249 31.728 83.1129 31.632 83.7049 30.368L83.9449 29.808L80.5689 21.952H82.6809L85.0329 27.584L87.2089 21.952H89.2249L85.8009 30.304C84.8249 32.736 83.1449 33.648 81.1129 33.152V31.488ZM99.0429 30.32C95.7149 30.32 93.2829 27.824 93.2829 24.4C93.2829 20.976 95.7149 18.48 99.0429 18.48C101.939 18.48 104.195 20.352 104.387 22.912L102.339 23.088C102.147 21.488 100.755 20.32 99.0429 20.32C96.9309 20.32 95.3949 22.048 95.3949 24.4C95.3949 26.736 96.9309 28.464 99.0429 28.464C100.771 28.464 102.179 27.232 102.371 25.552L104.419 25.712C104.211 28.368 101.939 30.32 99.0429 30.32ZM109.815 30.24C107.367 30.24 105.607 28.464 105.607 25.968C105.607 23.488 107.367 21.712 109.815 21.712C112.247 21.712 114.007 23.488 114.007 25.968C114.007 28.464 112.247 30.24 109.815 30.24ZM107.607 25.968C107.607 27.488 108.503 28.56 109.815 28.56C111.111 28.56 112.007 27.488 112.007 25.968C112.007 24.464 111.111 23.392 109.815 23.392C108.503 23.392 107.607 24.464 107.607 25.968ZM115.363 30V21.952H117.347L117.299 23.664C117.651 22.48 118.547 21.76 119.843 21.76C121.587 21.76 122.755 23.056 122.755 25.04V30H120.771V25.344C120.771 24.096 120.179 23.36 119.123 23.36C117.987 23.36 117.347 24.208 117.347 25.696V30H115.363ZM126.675 30L123.491 21.952H125.571L127.715 27.84L129.875 21.952H131.875L128.691 30H126.675ZM136.297 30.288C133.881 30.288 132.153 28.48 132.153 25.968C132.153 23.472 133.881 21.664 136.265 21.664C139.049 21.664 140.537 24.064 140.185 26.576H134.153C134.217 27.824 135.097 28.736 136.313 28.736C137.273 28.736 138.073 28.192 138.345 27.376L140.041 27.632C139.721 29.12 138.249 30.288 136.297 30.288ZM134.169 25.088H138.265C138.265 24.016 137.449 23.152 136.265 23.152C135.161 23.152 134.313 23.936 134.169 25.088ZM141.613 30V21.952H143.597L143.549 24.16C143.901 22.288 145.229 21.664 146.589 21.936V23.904C145.037 23.68 143.597 24.384 143.597 26.576V30H141.613ZM152.536 29.936C150.776 30.432 148.84 29.936 148.84 27.312V23.6H147.384V21.952H148.84V19.92H150.824V21.952H152.76V23.6H150.824V27.152C150.824 28.432 151.672 28.528 152.52 28.272L152.536 29.936ZM157.751 30.288C155.335 30.288 153.607 28.48 153.607 25.968C153.607 23.472 155.335 21.664 157.719 21.664C160.503 21.664 161.991 24.064 161.639 26.576H155.607C155.671 27.824 156.551 28.736 157.766 28.736C158.727 28.736 159.527 28.192 159.799 27.376L161.495 27.632C161.175 29.12 159.703 30.288 157.751 30.288ZM155.623 25.088H159.719C159.719 24.016 158.903 23.152 157.719 23.152C156.615 23.152 155.767 23.936 155.623 25.088ZM163.066 30V21.952H165.05L165.002 24.16C165.354 22.288 166.682 21.664 168.042 21.936V23.904C166.49 23.68 165.05 24.384 165.05 26.576V30H163.066Z" fill="#111111"/>
<path d="M179.625 21.6172C179.352 21.6172 179.133 21.4062 179.133 21.1406C179.133 20.875 179.352 20.6641 179.625 20.6641H185.25C185.062 19.3516 184.047 18.6094 182.352 18.6094H179.852C179.383 18.6094 179 18.2266 179 17.7578C179 17.2812 179.383 16.8984 179.852 16.8984H188.875C189.148 16.8984 189.359 17.1094 189.359 17.3828C189.359 17.6484 189.148 17.8594 188.875 17.8594H186.062C186.906 18.4844 187.398 19.4766 187.508 20.6641H188.875C189.148 20.6641 189.359 20.875 189.359 21.1406C189.359 21.4062 189.148 21.6172 188.875 21.6172H187.508C187.305 23.4844 185.906 25.3281 182.914 25.3281H182.203L186.375 29.2656C187.461 30.3047 186.008 31.8203 184.836 30.6719L179.508 25.5859C179.234 25.3203 179.109 24.9922 179.109 24.6797C179.109 24.1406 179.492 23.6484 180.211 23.6484H182.312C184.062 23.6484 185.062 22.9375 185.25 21.6172H179.625Z" fill="#111111"/>
<path d="M236.928 30V18.8H239.008V28.288H244.208V30H236.928ZM245.519 30V21.952H247.503V30H245.519ZM245.231 19.52C245.231 18.8 245.791 18.24 246.511 18.24C247.247 18.24 247.807 18.8 247.807 19.52C247.807 20.256 247.247 20.816 246.511 20.816C245.791 20.816 245.231 20.256 245.231 19.52ZM251.769 30L248.585 21.952H250.664L252.809 27.84L254.969 21.952H256.969L253.785 30H251.769ZM261.391 30.288C258.975 30.288 257.247 28.48 257.247 25.968C257.247 23.472 258.975 21.664 261.359 21.664C264.143 21.664 265.631 24.064 265.279 26.576H259.247C259.311 27.824 260.191 28.736 261.407 28.736C262.367 28.736 263.167 28.192 263.439 27.376L265.135 27.632C264.815 29.12 263.343 30.288 261.391 30.288ZM259.263 25.088H263.359C263.359 24.016 262.543 23.152 261.359 23.152C260.255 23.152 259.407 23.936 259.263 25.088ZM269.738 30V21.952H271.722L271.674 24.16C272.026 22.288 273.354 21.664 274.714 21.936V23.904C273.162 23.68 271.722 24.384 271.722 26.576V30H269.738ZM277.979 30.176C276.459 30.176 275.371 29.312 275.371 27.92C275.371 26.416 276.667 25.568 279.051 25.296L280.539 25.136V24.896C280.539 23.92 279.995 23.312 279.067 23.312C278.219 23.312 277.611 23.84 277.531 24.784L275.611 24.736C275.707 22.96 277.147 21.712 279.131 21.712C281.115 21.712 282.507 23.024 282.507 24.944V27.616C282.507 28.48 282.587 29.408 282.699 30H280.763C280.683 29.648 280.635 29.28 280.635 28.64C280.203 29.568 279.179 30.176 277.979 30.176ZM277.355 27.744C277.355 28.448 277.899 28.8 278.603 28.8C279.707 28.8 280.571 27.952 280.571 26.736V26.336L279.195 26.496C278.027 26.64 277.355 26.96 277.355 27.744ZM288.661 29.936C286.901 30.432 284.965 29.936 284.965 27.312V23.6H283.509V21.952H284.965V19.92H286.949V21.952H288.885V23.6H286.949V27.152C286.949 28.432 287.797 28.528 288.645 28.272L288.661 29.936ZM293.907 30.288C291.491 30.288 289.763 28.48 289.763 25.968C289.763 23.472 291.491 21.664 293.875 21.664C296.659 21.664 298.147 24.064 297.795 26.576H291.763C291.827 27.824 292.707 28.736 293.923 28.736C294.883 28.736 295.683 28.192 295.955 27.376L297.651 27.632C297.331 29.12 295.859 30.288 293.907 30.288ZM291.779 25.088H295.875C295.875 24.016 295.059 23.152 293.875 23.152C292.771 23.152 291.923 23.936 291.779 25.088ZM302.55 30.288C300.47 30.288 299.03 29.2 298.902 27.488L300.742 27.424C300.822 28.32 301.558 28.896 302.55 28.896C303.366 28.896 304.038 28.528 304.038 27.872C304.038 27.344 303.622 27.072 302.79 26.928L301.526 26.704C299.862 26.448 299.078 25.536 299.078 24.32C299.078 22.688 300.454 21.664 302.374 21.664C304.294 21.664 305.686 22.768 305.782 24.448L303.99 24.528C303.942 23.664 303.27 23.056 302.342 23.056C301.59 23.056 300.982 23.456 300.982 24.112C300.982 24.592 301.35 24.88 301.942 24.992L303.19 25.216C304.966 25.488 305.974 26.32 305.974 27.664C305.974 29.264 304.534 30.288 302.55 30.288Z" fill="#111111"/>
<path d="M328.18 31.5703C323.961 31.5703 320.477 28.0859 320.477 23.8594C320.477 19.6328 323.953 16.1484 328.18 16.1484C332.406 16.1484 335.891 19.6328 335.891 23.8594C335.891 28.0859 332.406 31.5703 328.18 31.5703ZM339.969 23.8594C339.969 26.3828 339.141 28.7344 337.727 30.6484C337.398 31.0781 336.844 31.1172 336.438 30.7812C336.047 30.4453 336.023 29.9375 336.328 29.5156C337.5 27.9219 338.172 25.9609 338.172 23.8594C338.172 21.7578 337.5 19.7969 336.328 18.1953C336.016 17.7812 336.039 17.2734 336.438 16.9297C336.844 16.6016 337.398 16.6406 337.719 17.0703C339.141 18.9766 339.969 21.3359 339.969 23.8594ZM316.398 23.8594C316.398 21.3359 317.219 18.9766 318.648 17.0703C318.969 16.6406 319.523 16.6016 319.93 16.9297C320.328 17.2734 320.352 17.7812 320.039 18.1953C318.867 19.7969 318.195 21.7578 318.195 23.8594C318.195 25.9609 318.867 27.9219 320.039 29.5156C320.344 29.9375 320.32 30.4453 319.93 30.7812C319.523 31.1172 318.969 31.0781 318.641 30.6484C317.219 28.7344 316.398 26.3828 316.398 23.8594ZM328.18 29.7812C331.469 29.7812 334.109 27.1406 334.102 23.8594C334.094 20.5781 331.453 17.9453 328.18 17.9453C324.898 17.9453 322.273 20.5781 322.273 23.8594C322.273 27.1406 324.906 29.7812 328.18 29.7812Z" fill="#111111"/>
<path d="M370 24C370 12.9543 378.954 4 390 4H498C509.046 4 518 12.9543 518 24C518 35.0457 509.046 44 498 44H390C378.954 44 370 35.0457 370 24Z" fill="#7C5BDA"/>
<path d="M387.2 30.288C384.576 30.288 382.672 28.72 382.656 26.48L384.672 26.352C384.72 27.728 385.776 28.656 387.232 28.656C388.576 28.656 389.52 27.968 389.52 26.96C389.52 26.128 388.96 25.68 387.792 25.44L386.384 25.2C384.208 24.816 382.96 23.616 382.96 21.888C382.96 19.824 384.64 18.512 387.008 18.512C389.408 18.512 391.2 20.016 391.264 22.144L389.216 22.272C389.152 20.992 388.24 20.128 386.992 20.128C385.872 20.128 385.04 20.768 385.04 21.728C385.04 22.528 385.632 23.024 386.576 23.216L387.984 23.472C390.352 23.872 391.584 25.024 391.584 26.816C391.584 28.88 389.792 30.288 387.2 30.288ZM396.922 30.288C394.506 30.288 392.778 28.48 392.778 25.968C392.778 23.472 394.506 21.664 396.89 21.664C399.674 21.664 401.162 24.064 400.81 26.576H394.778C394.842 27.824 395.722 28.736 396.938 28.736C397.898 28.736 398.698 28.192 398.97 27.376L400.666 27.632C400.346 29.12 398.874 30.288 396.922 30.288ZM394.794 25.088H398.89C398.89 24.016 398.074 23.152 396.89 23.152C395.786 23.152 394.938 23.936 394.794 25.088ZM406.818 29.936C405.058 30.432 403.122 29.936 403.122 27.312V23.6H401.666V21.952H403.122V19.92H405.106V21.952H407.042V23.6H405.106V27.152C405.106 28.432 405.954 28.528 406.802 28.272L406.818 29.936ZM411.41 30V21.952H413.394L413.346 24.16C413.698 22.288 415.026 21.664 416.386 21.936V23.904C414.834 23.68 413.394 24.384 413.394 26.576V30H411.41ZM419.651 30.176C418.131 30.176 417.043 29.312 417.043 27.92C417.043 26.416 418.339 25.568 420.723 25.296L422.211 25.136V24.896C422.211 23.92 421.667 23.312 420.739 23.312C419.891 23.312 419.283 23.84 419.203 24.784L417.283 24.736C417.379 22.96 418.819 21.712 420.803 21.712C422.787 21.712 424.179 23.024 424.179 24.944V27.616C424.179 28.48 424.259 29.408 424.371 30H422.435C422.355 29.648 422.307 29.28 422.307 28.64C421.875 29.568 420.851 30.176 419.651 30.176ZM419.027 27.744C419.027 28.448 419.571 28.8 420.275 28.8C421.379 28.8 422.243 27.952 422.243 26.736V26.336L420.867 26.496C419.699 26.64 419.027 26.96 419.027 27.744ZM430.333 29.936C428.573 30.432 426.637 29.936 426.637 27.312V23.6H425.181V21.952H426.637V19.92H428.621V21.952H430.557V23.6H428.621V27.152C428.621 28.432 429.469 28.528 430.317 28.272L430.333 29.936ZM435.579 30.288C433.163 30.288 431.435 28.48 431.435 25.968C431.435 23.472 433.163 21.664 435.547 21.664C438.331 21.664 439.819 24.064 439.467 26.576H433.435C433.499 27.824 434.379 28.736 435.595 28.736C436.555 28.736 437.355 28.192 437.627 27.376L439.323 27.632C439.003 29.12 437.531 30.288 435.579 30.288ZM433.451 25.088H437.547C437.547 24.016 436.731 23.152 435.547 23.152C434.443 23.152 433.595 23.936 433.451 25.088ZM446.213 30.176C444.693 30.176 443.605 29.312 443.605 27.92C443.605 26.416 444.901 25.568 447.285 25.296L448.773 25.136V24.896C448.773 23.92 448.229 23.312 447.301 23.312C446.453 23.312 445.845 23.84 445.765 24.784L443.845 24.736C443.941 22.96 445.381 21.712 447.365 21.712C449.349 21.712 450.741 23.024 450.741 24.944V27.616C450.741 28.48 450.821 29.408 450.933 30H448.997C448.917 29.648 448.869 29.28 448.869 28.64C448.437 29.568 447.413 30.176 446.213 30.176ZM445.589 27.744C445.589 28.448 446.133 28.8 446.837 28.8C447.941 28.8 448.805 27.952 448.805 26.736V26.336L447.429 26.496C446.261 26.64 445.589 26.96 445.589 27.744ZM455.771 29.904C454.011 30.352 452.283 29.952 452.283 27.488V18.8H454.267V27.088C454.267 28.176 454.811 28.48 455.755 28.224L455.771 29.904ZM460.782 30.288C458.366 30.288 456.638 28.48 456.638 25.968C456.638 23.472 458.366 21.664 460.75 21.664C463.534 21.664 465.022 24.064 464.67 26.576H458.638C458.702 27.824 459.582 28.736 460.798 28.736C461.758 28.736 462.558 28.192 462.83 27.376L464.526 27.632C464.206 29.12 462.734 30.288 460.782 30.288ZM458.654 25.088H462.75C462.75 24.016 461.934 23.152 460.75 23.152C459.646 23.152 458.798 23.936 458.654 25.088ZM466.097 30V21.952H468.081L468.033 24.16C468.385 22.288 469.713 21.664 471.073 21.936V23.904C469.521 23.68 468.081 24.384 468.081 26.576V30H466.097ZM477.021 29.936C475.261 30.432 473.325 29.936 473.325 27.312V23.6H471.869V21.952H473.325V19.92H475.309V21.952H477.245V23.6H475.309V27.152C475.309 28.432 476.157 28.528 477.005 28.272L477.021 29.936Z" fill="white"/>
<path d="M489.875 31.4375C488.484 31.4375 487.594 30.4141 487.594 29.1562C487.594 28.7734 487.695 28.375 487.906 28.0078L493.945 17.4766C494.375 16.7188 495.133 16.3281 495.906 16.3281C496.672 16.3281 497.43 16.7109 497.859 17.4766L503.898 28C504.109 28.375 504.211 28.7734 504.211 29.1562C504.211 30.4141 503.32 31.4375 501.93 31.4375H489.875ZM495.914 25.9844C496.398 25.9844 496.68 25.7109 496.695 25.1953L496.82 21.5078C496.844 20.9844 496.453 20.6172 495.906 20.6172C495.344 20.6172 494.969 20.9844 494.992 21.5078L495.109 25.2031C495.125 25.7031 495.414 25.9844 495.914 25.9844ZM495.914 28.7266C496.477 28.7266 496.93 28.3516 496.93 27.7969C496.93 27.25 496.484 26.8594 495.914 26.8594C495.344 26.8594 494.891 27.25 494.891 27.7969C494.891 28.3438 495.344 28.7266 495.914 28.7266Z" fill="white"/>
</svg>
