<svg width="13" height="8" viewBox="0 0 13 8" fill="none" xmlns="http://www.w3.org/2000/svg">
<path d="M6.7998 7.81055C6.56738 7.81055 6.3623 7.72168 6.18457 7.53711L0.975586 2.21191C0.825195 2.06152 0.743164 1.87012 0.743164 1.65137C0.743164 1.20703 1.0918 0.858398 1.53613 0.858398C1.75488 0.858398 1.95312 0.947266 2.11035 1.09766L6.7998 5.90332L11.4893 1.09766C11.6396 0.947266 11.8447 0.858398 12.0635 0.858398C12.501 0.858398 12.8496 1.20703 12.8496 1.65137C12.8496 1.87695 12.7744 2.06152 12.624 2.21191L7.41504 7.53711C7.24414 7.72168 7.03223 7.81055 6.7998 7.81055Z" fill="white"/>
</svg>
