<svg width="17" height="17" viewBox="0 0 17 17" fill="none" xmlns="http://www.w3.org/2000/svg">
<path d="M8.54688 17.0078C4.07812 17.0078 0.398438 13.3281 0.398438 8.85938C0.398438 4.39844 4.07812 0.710938 8.53906 0.710938C13.0078 0.710938 16.6953 4.39844 16.6953 8.85938C16.6953 13.3281 13.0156 17.0078 8.54688 17.0078ZM8.55469 4.64844C8.08594 4.64844 7.73438 4.97656 7.73438 5.42969V9.10156L7.82031 10.75L7.14844 9.88281L6.27344 8.95312C6.14844 8.80469 5.94531 8.71094 5.73438 8.71094C5.3125 8.71094 5.00781 9.01562 5.00781 9.42969C5.00781 9.64844 5.07031 9.8125 5.22656 9.97656L7.89844 12.7109C8.10156 12.9219 8.29688 13.0156 8.55469 13.0156C8.8125 13.0156 9.01562 12.9141 9.21094 12.7109L11.8828 9.97656C12.0391 9.8125 12.1094 9.64844 12.1094 9.42969C12.1094 9.01562 11.7969 8.71094 11.3672 8.71094C11.1641 8.71094 10.9609 8.79688 10.8281 8.95312L9.96875 9.86719L9.28125 10.7578L9.36719 9.10156V5.42969C9.36719 4.97656 9.02344 4.64844 8.55469 4.64844Z" fill="#0B0B0B"/>
</svg>
